# xmcd
#
# Track frame offsets:
#	183
#	36073
#	52803
#	71463
#	99493
#	118538
#	145715
#	185403
#	209930
#	235575
#
# Disc length: 3530 seconds
#
# Revision: 0
# Processed by: cddbd v1.5.1PL0 Copyright (c) Steve Scherf et al.
# Submitted via: MusicWizard 6.0.1
#
DISCID=860dc80a
DTITLE=Various Artist - Black Power and White Heroes
DYEAR=1900
DGENRE=Blues
TTITLE0=James Brown - Let yourself go
TTITLE1=Otis Redding - I've been loving you too long
TTITLE2=Billy Preston - That's the way God planned it
TTITLE3=Joe Cocker - Bird on the wird
TTITLE4=Sly and The Family Stone - I want to take you higher
TTITLE5=Eric Burdon - Monterey
TTITLE6=Butterfield Blues Band - Love March
TTITLE7=Electric Flag - Night Time is The Right Time
TTITLE8=Van Morrison - Into the Mystic
TTITLE9=Janis Joplin - Try
EXTD=
EXTT0=
EXTT1=
EXTT2=
EXTT3=
EXTT4=
EXTT5=
EXTT6=
EXTT7=
EXTT8=
EXTT9=
PLAYORDER=
